<svg xmlns="http://www.w3.org/2000/svg" xmlns:xlink="http://www.w3.org/1999/xlink" width="500" zoomAndPan="magnify" viewBox="0 0 375 374.999991" height="500" preserveAspectRatio="xMidYMid meet" version="1.2"><defs><clipPath id="b53a067639"><path d="M 53.464844 60.167969 L 357.644531 60.167969 L 357.644531 315 L 53.464844 315 Z M 53.464844 60.167969 "/></clipPath><clipPath id="39a1cbdc5b"><path d="M 120.234375 90.203125 L 218.421875 90.203125 L 218.421875 130.726562 L 120.234375 130.726562 Z M 120.234375 90.203125 "/></clipPath></defs><g id="7e066ff28e"><path style=" stroke:none;fill-rule:nonzero;fill:#38b6ff;fill-opacity:1;" d="M 284.265625 213.464844 L 60.011719 213.464844 C 60.011719 213.464844 60.007812 267.398438 60.007812 267.402344 C 60.007812 290.019531 110.210938 308.351562 172.136719 308.351562 C 234.066406 308.351562 284.265625 290.019531 284.265625 267.402344 C 284.265625 267.398438 284.265625 213.464844 284.265625 213.464844 Z M 284.265625 213.464844 "/><path style=" stroke:none;fill-rule:nonzero;fill:#dff0fe;fill-opacity:1;" d="M 284.265625 160.5 L 60.011719 160.5 C 60.011719 160.5 60.007812 214.429688 60.007812 214.4375 C 60.007812 237.050781 110.210938 255.386719 172.136719 255.386719 C 234.066406 255.386719 284.265625 237.050781 284.265625 214.4375 C 284.265625 214.429688 284.265625 160.5 284.265625 160.5 Z M 284.265625 160.5 "/><path style=" stroke:none;fill-rule:nonzero;fill:#ffffff;fill-opacity:1;" d="M 284.265625 107.601562 L 60.011719 107.601562 C 60.011719 107.601562 60.007812 161.53125 60.007812 161.539062 C 60.007812 184.152344 110.210938 202.484375 172.136719 202.484375 C 234.066406 202.484375 284.265625 184.152344 284.265625 161.539062 C 284.265625 161.53125 284.265625 107.601562 284.265625 107.601562 Z M 284.265625 107.601562 "/><path style=" stroke:none;fill-rule:nonzero;fill:#ffffff;fill-opacity:1;" d="M 172.136719 148.527344 C 234.066406 148.527344 284.265625 130.195312 284.265625 107.578125 C 284.265625 84.964844 234.066406 66.628906 172.136719 66.628906 C 110.210938 66.628906 60.007812 84.964844 60.007812 107.578125 C 60.007812 130.195312 110.210938 148.527344 172.136719 148.527344 Z M 172.136719 148.527344 "/><path style=" stroke:none;fill-rule:nonzero;fill:#ffffff;fill-opacity:1;" d="M 330.152344 174.351562 L 192.980469 174.351562 C 181.46875 174.351562 172.136719 183.683594 172.136719 195.195312 L 172.136719 260.859375 C 172.136719 272.371094 181.46875 281.703125 192.980469 281.703125 L 330.152344 281.703125 C 341.664062 281.703125 350.996094 272.371094 350.996094 260.859375 L 350.996094 195.195312 C 350.996094 183.683594 341.664062 174.351562 330.152344 174.351562 Z M 330.152344 174.351562 "/><path style=" stroke:none;fill-rule:nonzero;fill:#dff0fe;fill-opacity:1;" d="M 266.480469 202.96875 L 256.230469 202.96875 C 251.917969 202.96875 248.421875 206.460938 248.421875 210.773438 L 248.421875 238.222656 C 248.421875 242.535156 251.917969 246.03125 256.230469 246.03125 L 266.480469 246.03125 C 270.792969 246.03125 274.285156 242.535156 274.285156 238.222656 L 274.285156 210.773438 C 274.285156 206.460938 270.792969 202.96875 266.480469 202.96875 Z M 266.480469 202.96875 "/><g clip-rule="nonzero" clip-path="url(#b53a067639)"><path style=" stroke:none;fill-rule:nonzero;fill:#06335f;fill-opacity:1;" d="M 330.148438 167.882812 L 290.734375 167.882812 L 290.734375 107.601562 C 290.734375 107.597656 290.730469 107.597656 290.730469 107.59375 C 290.730469 107.585938 290.734375 107.582031 290.734375 107.578125 C 290.734375 76.78125 229.632812 60.167969 172.136719 60.167969 C 114.644531 60.167969 53.542969 76.78125 53.542969 107.578125 C 53.542969 107.585938 53.546875 107.59375 53.546875 107.601562 L 53.542969 267.40625 C 53.542969 298.203125 114.644531 314.816406 172.136719 314.816406 C 219.074219 314.816406 260.941406 304.386719 279.683594 288.167969 L 330.148438 288.167969 C 345.210938 288.167969 357.460938 275.917969 357.460938 260.855469 L 357.460938 195.195312 C 357.460938 180.132812 345.210938 167.882812 330.148438 167.882812 Z M 192.984375 167.882812 C 177.921875 167.882812 165.671875 180.132812 165.671875 195.195312 L 165.671875 195.898438 C 106.980469 194.675781 66.511719 177.21875 66.480469 161.558594 L 66.476562 129.90625 C 87.40625 146.296875 130.648438 154.996094 172.136719 154.996094 C 213.625 154.996094 256.871094 146.296875 277.800781 129.90625 L 277.800781 161.539062 C 277.800781 163.597656 277.023438 165.722656 275.535156 167.882812 Z M 66.480469 214.457031 L 66.476562 183.820312 C 86.347656 199.367188 126.300781 207.984375 165.671875 208.832031 L 165.671875 248.804688 C 107.027344 247.566406 66.511719 230.042969 66.480469 214.457031 Z M 172.136719 73.097656 C 232.609375 73.097656 277.800781 91.304688 277.800781 107.578125 C 277.800781 123.855469 232.609375 142.0625 172.136719 142.0625 C 111.664062 142.0625 66.476562 123.855469 66.476562 107.578125 C 66.476562 91.304688 111.664062 73.097656 172.136719 73.097656 Z M 172.136719 301.882812 C 111.664062 301.882812 66.476562 283.679688 66.476562 267.40625 L 66.476562 236.667969 C 86.394531 252.242188 126.46875 260.90625 165.761719 261.742188 C 166.238281 276.382812 178.222656 288.167969 192.984375 288.167969 L 254.625 288.167969 C 234.628906 296.648438 204.46875 301.882812 172.136719 301.882812 Z M 344.527344 260.855469 C 344.527344 268.789062 338.078125 275.234375 330.148438 275.234375 L 192.984375 275.234375 C 185.054688 275.234375 178.605469 268.789062 178.605469 260.855469 L 178.605469 195.195312 C 178.605469 187.265625 185.054688 180.816406 192.984375 180.816406 L 330.148438 180.816406 C 338.078125 180.816406 344.527344 187.265625 344.527344 195.195312 Z M 204.542969 210.566406 L 204.542969 216.898438 C 204.542969 217.523438 205.054688 218.03125 205.679688 218.03125 L 216.339844 218.03125 C 224.097656 218.03125 230.410156 224.335938 230.410156 232.097656 L 230.410156 238.425781 C 230.410156 246.1875 224.097656 252.496094 216.339844 252.496094 L 205.679688 252.496094 C 197.921875 252.496094 191.613281 246.1875 191.613281 238.425781 L 191.613281 236.738281 C 191.613281 233.167969 194.507812 230.273438 198.078125 230.273438 C 201.648438 230.273438 204.542969 233.167969 204.542969 236.738281 L 204.542969 238.425781 C 204.542969 239.050781 205.054688 239.5625 205.679688 239.5625 L 216.339844 239.5625 C 216.964844 239.5625 217.476562 239.050781 217.476562 238.425781 L 217.476562 232.097656 C 217.476562 231.472656 216.964844 230.960938 216.339844 230.960938 L 205.679688 230.960938 C 197.921875 230.960938 191.613281 224.652344 191.613281 216.898438 L 191.613281 210.566406 C 191.613281 202.8125 197.921875 196.503906 205.679688 196.503906 L 216.339844 196.503906 C 224.097656 196.503906 230.410156 202.8125 230.410156 210.566406 C 230.410156 214.140625 227.515625 217.03125 223.945312 217.03125 C 220.375 217.03125 217.476562 214.140625 217.476562 210.566406 C 217.476562 209.941406 216.964844 209.433594 216.339844 209.433594 L 205.679688 209.433594 C 205.054688 209.433594 204.542969 209.941406 204.542969 210.566406 Z M 280.75 238.222656 L 280.75 210.773438 C 280.75 202.90625 274.347656 196.503906 266.480469 196.503906 L 256.226562 196.503906 C 248.355469 196.503906 241.953125 202.90625 241.953125 210.773438 L 241.953125 238.222656 C 241.953125 246.09375 248.355469 252.496094 256.226562 252.496094 L 266.480469 252.496094 C 266.789062 252.496094 267.078125 252.425781 267.382812 252.40625 C 271.386719 256.402344 277.433594 258.007812 282.949219 256.367188 C 288.398438 254.039062 279.824219 248.460938 278.699219 245.484375 C 279.972656 243.351562 280.75 240.886719 280.75 238.222656 Z M 254.886719 238.222656 L 254.886719 210.773438 C 254.886719 210.035156 255.488281 209.433594 256.226562 209.433594 L 266.480469 209.433594 C 267.21875 209.433594 267.820312 210.035156 267.820312 210.773438 L 267.820312 238.222656 C 267.820312 238.964844 267.21875 239.5625 266.480469 239.5625 L 256.226562 239.5625 C 255.488281 239.5625 254.886719 238.964844 254.886719 238.222656 Z M 332.480469 238.222656 C 332.480469 246.09375 326.078125 252.496094 318.210938 252.496094 L 307.957031 252.496094 C 300.089844 252.496094 293.683594 246.09375 293.683594 238.222656 L 293.683594 202.96875 C 293.683594 199.394531 296.582031 196.503906 300.152344 196.503906 C 303.722656 196.503906 306.617188 199.394531 306.617188 202.96875 L 306.617188 238.222656 C 306.617188 238.964844 307.21875 239.5625 307.957031 239.5625 L 318.210938 239.5625 C 318.949219 239.5625 319.550781 238.964844 319.550781 238.222656 C 319.550781 234.648438 322.445312 231.757812 326.015625 231.757812 C 329.585938 231.757812 332.480469 234.648438 332.480469 238.222656 Z M 129.183594 107.578125 C 129.183594 106.953125 129.691406 106.445312 130.316406 106.445312 L 143.246094 106.445312 C 143.871094 106.445312 144.378906 106.953125 144.378906 107.578125 C 144.378906 108.203125 143.871094 108.707031 143.246094 108.707031 L 130.316406 108.707031 C 129.691406 108.707031 129.183594 108.203125 129.183594 107.578125 Z M 161.515625 107.578125 C 161.515625 106.953125 162.019531 106.445312 162.644531 106.445312 L 175.578125 106.445312 C 176.203125 106.445312 176.710938 106.953125 176.710938 107.578125 C 176.710938 108.203125 176.203125 108.707031 175.578125 108.707031 L 162.644531 108.707031 C 162.019531 108.707031 161.515625 108.203125 161.515625 107.578125 Z M 193.847656 107.578125 C 193.847656 106.953125 194.351562 106.445312 194.976562 106.445312 L 207.910156 106.445312 C 208.535156 106.445312 209.039062 106.953125 209.039062 107.578125 C 209.039062 108.203125 208.535156 108.707031 207.910156 108.707031 L 194.976562 108.707031 C 194.351562 108.707031 193.847656 108.203125 193.847656 107.578125 Z M 193.847656 107.578125 "/></g><g clip-rule="nonzero" clip-path="url(#39a1cbdc5b)"><path style=" stroke:none;fill-rule:nonzero;fill:#ffffff;fill-opacity:1;" d="M 120.234375 90.203125 L 218.382812 90.203125 L 218.382812 130.726562 L 120.234375 130.726562 Z M 120.234375 90.203125 "/></g></g></svg>